<svg viewBox="0 0 600 360" fill="none" xmlns="http://www.w3.org/2000/svg" font-family="'JetBrains Mono', monospace">
  <defs>
    <linearGradient id="di-bg" x1="0" y1="0" x2="1" y2="1">
      <stop offset="0" stop-color="#0d1030"/><stop offset="1" stop-color="#0a0714"/>
    </linearGradient>
    <linearGradient id="di-ac" x1="0" y1="0" x2="1" y2="0">
      <stop offset="0" stop-color="#7c5cff"/><stop offset="1" stop-color="#22d3ee"/>
    </linearGradient>
  </defs>
  <rect width="600" height="360" fill="url(#di-bg)"/>
  <g opacity="0.4" stroke="#ffffff" stroke-width="0.5">
    <path d="M0 60 H600 M0 120 H600 M0 180 H600 M0 240 H600 M0 300 H600"/>
  </g>
  <!-- input document -->
  <rect x="34" y="120" width="90" height="120" rx="8" fill="#12152e" stroke="#3a3f66"/>
  <g stroke="#5b6188" stroke-width="4" stroke-linecap="round">
    <path d="M50 148 H108"/><path d="M50 164 H108"/><path d="M50 180 H92"/><path d="M50 196 H108"/><path d="M50 212 H80"/>
  </g>
  <text x="79" y="262" fill="#969ab5" font-size="11" text-anchor="middle">Unstructured PDF</text>
  <!-- flow arrows -->
  <path d="M130 180 H176" stroke="url(#di-ac)" stroke-width="2" marker-end="url(#a)"/>
  <!-- agents column -->
  <g>
    <rect x="180" y="70" width="150" height="52" rx="10" fill="#151833" stroke="#7c5cff" opacity="0.95"/>
    <circle cx="204" cy="96" r="8" fill="#7c5cff"/><text x="222" y="100" fill="#e7e9f3" font-size="12">OCR Agent</text>
    <rect x="180" y="154" width="150" height="52" rx="10" fill="#151833" stroke="#22d3ee"/>
    <circle cx="204" cy="180" r="8" fill="#22d3ee"/><text x="222" y="184" fill="#e7e9f3" font-size="12">Vision VLM</text>
    <rect x="180" y="238" width="150" height="52" rx="10" fill="#151833" stroke="#f472b6"/>
    <circle cx="204" cy="264" r="8" fill="#f472b6"/><text x="222" y="268" fill="#e7e9f3" font-size="12">Reasoning LLM</text>
  </g>
  <!-- merge to orchestrator -->
  <path d="M330 96 C380 96 380 180 410 180" stroke="#7c5cff" stroke-width="1.6" opacity="0.7"/>
  <path d="M330 180 H410" stroke="#22d3ee" stroke-width="1.6" opacity="0.7"/>
  <path d="M330 264 C380 264 380 180 410 180" stroke="#f472b6" stroke-width="1.6" opacity="0.7"/>
  <rect x="412" y="150" width="60" height="60" rx="12" fill="#1a1e3d" stroke="url(#di-ac)" stroke-width="1.5"/>
  <text x="442" y="176" fill="#e7e9f3" font-size="10" text-anchor="middle">tool</text>
  <text x="442" y="190" fill="#e7e9f3" font-size="10" text-anchor="middle">calling</text>
  <!-- output -->
  <path d="M474 180 H516" stroke="url(#di-ac)" stroke-width="2"/>
  <rect x="518" y="140" width="52" height="80" rx="8" fill="#0f2f2a" stroke="#34d399"/>
  <g stroke="#34d399" stroke-width="3" stroke-linecap="round"><path d="M530 162 H558"/><path d="M530 176 H552"/><path d="M530 190 H558"/></g>
  <text x="544" y="238" fill="#34d399" font-size="10" text-anchor="middle">JSON</text>
  <text x="300" y="330" fill="#6a6f8c" font-size="11" text-anchor="middle">Multi-agent text + visual reasoning · 80K+ PDFs/day · 99.85% accuracy</text>
</svg>
