<svg viewBox="0 0 600 360" fill="none" xmlns="http://www.w3.org/2000/svg" font-family="'JetBrains Mono', monospace">
  <defs>
    <linearGradient id="or-bg" x1="0" y1="0" x2="1" y2="1">
      <stop offset="0" stop-color="#0d1030"/><stop offset="1" stop-color="#0a0714"/>
    </linearGradient>
    <radialGradient id="or-core" cx="0.5" cy="0.5" r="0.5">
      <stop offset="0" stop-color="#a78bfa"/><stop offset="1" stop-color="#5b3fd6"/>
    </radialGradient>
  </defs>
  <rect width="600" height="360" fill="url(#or-bg)"/>
  <g opacity="0.35" stroke="#ffffff" stroke-width="0.5">
    <path d="M0 72 H600 M0 144 H600 M0 216 H600 M0 288 H600"/>
  </g>
  <!-- requests in -->
  <g fill="#969ab5" font-size="11">
    <text x="30" y="120">request →</text><text x="30" y="184">request →</text><text x="30" y="248">request →</text>
  </g>
  <path d="M110 115 C170 115 170 180 210 180" stroke="#3a3f66" stroke-width="1.5"/>
  <path d="M110 180 H210" stroke="#3a3f66" stroke-width="1.5"/>
  <path d="M110 244 C170 244 170 180 210 180" stroke="#3a3f66" stroke-width="1.5"/>
  <!-- router core -->
  <circle cx="248" cy="180" r="42" fill="url(#or-core)" opacity="0.25"/>
  <circle cx="248" cy="180" r="30" fill="url(#or-core)"/>
  <text x="248" y="177" fill="#fff" font-size="11" text-anchor="middle">intent</text>
  <text x="248" y="191" fill="#fff" font-size="11" text-anchor="middle">router</text>
  <!-- fan out to models -->
  <g stroke-width="1.8" opacity="0.85">
    <path d="M278 180 C340 180 340 78 400 78" stroke="#7c5cff"/>
    <path d="M278 180 C340 180 340 136 400 136" stroke="#22d3ee"/>
    <path d="M278 180 C340 180 340 194 400 194" stroke="#f472b6"/>
    <path d="M278 180 C340 180 340 252 400 252" stroke="#34d399"/>
    <path d="M278 180 C340 180 340 310 400 310" stroke="#fbbf24"/>
  </g>
  <g font-size="12" fill="#e7e9f3">
    <rect x="402" y="60" width="150" height="36" rx="8" fill="#151833" stroke="#7c5cff"/><text x="418" y="83">Gemini 3.5 Pro</text>
    <rect x="402" y="118" width="150" height="36" rx="8" fill="#151833" stroke="#22d3ee"/><text x="418" y="141">GPT-4o</text>
    <rect x="402" y="176" width="150" height="36" rx="8" fill="#151833" stroke="#f472b6"/><text x="418" y="199">LLaMA 3.3</text>
    <rect x="402" y="234" width="150" height="36" rx="8" fill="#151833" stroke="#34d399"/><text x="418" y="257">Qwen 3</text>
    <rect x="402" y="292" width="150" height="36" rx="8" fill="#151833" stroke="#fbbf24"/><text x="418" y="315">Gemma</text>
  </g>
  <text x="300" y="348" fill="#6a6f8c" font-size="11" text-anchor="middle">Multi-LLM orchestration · saves 1000s of dev-hours / week</text>
</svg>
