<svg viewBox="0 0 600 360" fill="none" xmlns="http://www.w3.org/2000/svg" font-family="'JetBrains Mono', monospace">
  <defs>
    <linearGradient id="rg-bg" x1="0" y1="0" x2="1" y2="1"><stop offset="0" stop-color="#0d1030"/><stop offset="1" stop-color="#0a0714"/></linearGradient>
    <linearGradient id="rg-ac" x1="0" y1="0" x2="1" y2="0"><stop offset="0" stop-color="#7c5cff"/><stop offset="1" stop-color="#22d3ee"/></linearGradient>
  </defs>
  <rect width="600" height="360" fill="url(#rg-bg)"/>
  <g opacity="0.35" stroke="#ffffff" stroke-width="0.5"><path d="M0 72 H600 M0 144 H600 M0 216 H600 M0 288 H600"/></g>
  <!-- query -->
  <rect x="28" y="158" width="96" height="44" rx="9" fill="#151833" stroke="#7c5cff"/>
  <text x="76" y="184" fill="#e7e9f3" font-size="12" text-anchor="middle">query</text>
  <!-- intent router -->
  <path d="M124 180 H160" stroke="url(#rg-ac)" stroke-width="2"/>
  <rect x="162" y="150" width="86" height="60" rx="10" fill="#1a1e3d" stroke="#22d3ee"/>
  <text x="205" y="176" fill="#e7e9f3" font-size="10" text-anchor="middle">intent</text>
  <text x="205" y="190" fill="#e7e9f3" font-size="10" text-anchor="middle">router</text>
  <!-- embed + retrieve -->
  <path d="M248 180 H286" stroke="#3a3f66" stroke-width="1.6"/>
  <rect x="288" y="94" width="120" height="40" rx="9" fill="#151833" stroke="#f472b6"/><text x="348" y="119" fill="#e7e9f3" font-size="11" text-anchor="middle">embeddings</text>
  <rect x="288" y="160" width="120" height="40" rx="9" fill="#151833" stroke="#34d399"/><text x="348" y="185" fill="#e7e9f3" font-size="11" text-anchor="middle">vector search</text>
  <rect x="288" y="226" width="120" height="40" rx="9" fill="#151833" stroke="#fbbf24"/><text x="348" y="251" fill="#e7e9f3" font-size="11" text-anchor="middle">keyword / BM25</text>
  <path d="M248 170 C270 170 270 114 288 114" stroke="#3a3f66" stroke-width="1.2"/>
  <path d="M248 190 C270 190 270 246 288 246" stroke="#3a3f66" stroke-width="1.2"/>
  <!-- vector db cylinder -->
  <g transform="translate(430,150)">
    <ellipse cx="30" cy="8" rx="30" ry="9" fill="#12152e" stroke="#5b6188"/>
    <path d="M0 8 V52 A30 9 0 0 0 60 52 V8" fill="#12152e" stroke="#5b6188"/>
    <ellipse cx="30" cy="8" rx="30" ry="9" fill="#1a1e3d" stroke="#7c5cff"/>
    <text x="30" y="40" fill="#969ab5" font-size="9" text-anchor="middle">vectors</text>
  </g>
  <path d="M408 114 C420 114 420 160 430 160" stroke="#f472b6" stroke-width="1.2" opacity="0.7"/>
  <path d="M408 180 H430" stroke="#34d399" stroke-width="1.2" opacity="0.7"/>
  <!-- fuse -> LLM -->
  <path d="M490 180 C510 180 510 300 60 300 40 300 40 300 40 300" fill="none"/>
  <rect x="210" y="300" width="180" height="40" rx="9" fill="#1a1e3d" stroke="url(#rg-ac)" stroke-width="1.4"/>
  <text x="300" y="325" fill="#e7e9f3" font-size="11" text-anchor="middle">context fusion → LLM → structured output</text>
  <path d="M460 208 C460 270 400 300 392 300" stroke="url(#rg-ac)" stroke-width="1.6" opacity="0.8"/>
  <text x="205" y="66" fill="#6a6f8c" font-size="11">Hybrid retrieval · semantic chunking · reranking</text>
</svg>
