<svg viewBox="0 0 600 360" fill="none" xmlns="http://www.w3.org/2000/svg" font-family="'JetBrains Mono', monospace">
  <defs>
    <linearGradient id="vi-bg" x1="0" y1="0" x2="1" y2="1">
      <stop offset="0" stop-color="#0d1030"/><stop offset="1" stop-color="#0a0714"/>
    </linearGradient>
  </defs>
  <rect width="600" height="360" fill="url(#vi-bg)"/>
  <!-- frame -->
  <rect x="40" y="36" width="380" height="288" rx="10" fill="#0f1226" stroke="#2a2f52"/>
  <!-- court / field abstraction -->
  <ellipse cx="230" cy="250" rx="150" ry="40" fill="none" stroke="#3a3f66" stroke-width="1.5"/>
  <path d="M230 210 V290 M120 250 H340" stroke="#3a3f66" stroke-width="1"/>
  <!-- detections (bounding boxes) -->
  <g stroke-width="2">
    <rect x="120" y="120" width="44" height="80" fill="none" stroke="#7c5cff"/>
    <rect x="118" y="106" width="48" height="14" fill="#7c5cff"/><text x="122" y="117" fill="#fff" font-size="9">player 0.98</text>
    <rect x="250" y="150" width="42" height="78" fill="none" stroke="#22d3ee"/>
    <rect x="248" y="136" width="46" height="14" fill="#22d3ee"/><text x="252" y="147" fill="#001014" font-size="9">player 0.96</text>
    <rect x="330" y="170" width="40" height="74" fill="none" stroke="#f472b6"/>
    <rect x="328" y="156" width="44" height="14" fill="#f472b6"/><text x="332" y="167" fill="#2a0018" font-size="9">player 0.94</text>
    <circle cx="205" cy="205" r="9" fill="none" stroke="#fbbf24"/><text x="188" y="188" fill="#fbbf24" font-size="9">ball</text>
  </g>
  <!-- pose keypoints on first box -->
  <g fill="#34d399"><circle cx="142" cy="130" r="2.5"/><circle cx="142" cy="150" r="2.5"/><circle cx="132" cy="165" r="2.5"/><circle cx="152" cy="165" r="2.5"/><circle cx="136" cy="188" r="2.5"/><circle cx="148" cy="188" r="2.5"/></g>
  <g stroke="#34d399" stroke-width="1.5"><path d="M142 130 V150 M142 150 L132 165 M142 150 L152 165 M142 150 L136 188 M142 150 L148 188"/></g>
  <!-- side panel: pipeline stages -->
  <g font-size="12">
    <rect x="440" y="60" width="130" height="34" rx="7" fill="#151833" stroke="#7c5cff"/><text x="456" y="82" fill="#e7e9f3">YOLOv9 detect</text>
    <rect x="440" y="106" width="130" height="34" rx="7" fill="#151833" stroke="#22d3ee"/><text x="456" y="128" fill="#e7e9f3">Multi-obj track</text>
    <rect x="440" y="152" width="130" height="34" rx="7" fill="#151833" stroke="#34d399"/><text x="456" y="174" fill="#e7e9f3">Pose estimate</text>
    <rect x="440" y="198" width="130" height="34" rx="7" fill="#151833" stroke="#f472b6"/><text x="456" y="220" fill="#e7e9f3">TensorRT / ONNX</text>
    <rect x="440" y="252" width="130" height="52" rx="7" fill="#0f2f2a" stroke="#34d399"/>
    <text x="505" y="274" fill="#34d399" font-size="13" text-anchor="middle" font-weight="bold">3× FPS</text>
    <text x="505" y="292" fill="#7fe6c4" font-size="9" text-anchor="middle">real-time</text>
  </g>
  <line x1="420" y1="180" x2="440" y2="180" stroke="#3a3f66"/>
  <text x="300" y="348" fill="#6a6f8c" font-size="11" text-anchor="middle">Real-time sports analytics · detection · tracking · pose · court localization</text>
</svg>
